<svg aria-hidden="true" style="position:absolute;width:0;height:0" xmlns="http://www.w3.org/2000/svg" overflow="hidden"><defs><symbol id="icon-gmail-1" viewBox="0 0 32 32"><path d="M32 6v20c0 1.133-.867 2-2 2h-2V9.849l-12 8.617L4 9.849V28H2c-1.135 0-2-.867-2-2V6c0-.567.216-1.067.575-1.424A1.98 1.98 0 012 4h.667L16 13.667 29.333 4H30c.567 0 1.067.216 1.425.576.36.357.575.857.575 1.424z"/></symbol><symbol id="icon-mail" viewBox="0 0 32 32"><path d="M16 0C7.163 0 0 7.163 0 16s7.163 16 16 16 16-7.163 16-16S24.837 0 16 0zM8 8h16c.286 0 .563.061.817.177L16 18.463 7.183 8.176c.254-.116.531-.177.817-.177zM6 22V10c0-.042.002-.084.004-.125l5.864 6.842-5.8 5.8A1.983 1.983 0 015.999 22zm18 2H8c-.177 0-.35-.024-.517-.069l5.691-5.691L16 21.537l2.826-3.297 5.691 5.691c-.167.045-.34.069-.517.069zm2-2c0 .177-.024.35-.069.517l-5.8-5.8 5.865-6.842c.003.041.004.083.004.125v12z"/></symbol><symbol id="icon-mail1" viewBox="0 0 32 32"><path d="M30.912 10.282c-.294-.243-6.983-5.622-8.453-6.791C21.078 2.387 18.715 0 16.001 0c-2.7 0-5.04 2.357-6.458 3.491a3061.886 3061.886 0 00-8.447 6.784 2.995 2.995 0 00-1.095 2.317v16.407a3 3 0 003 3h26a3 3 0 003-3V12.593c0-.928-.421-1.758-1.083-2.308l-.005-.004zM29 28.625a.375.375 0 01-.375.375H3.375A.375.375 0 013 28.625V12.772c0-.113.051-.22.139-.292.992-.801 6.8-5.472 8.273-6.643C12.547 4.93 14.525 3 16 3c1.481 0 3.491 1.961 4.588 2.837 1.473 1.171 7.281 5.843 8.273 6.645a.374.374 0 01.139.291v15.852zm-1.999-11.732c.266.322.217.8-.109 1.061a1720.95 1720.95 0 01-4.433 3.554c-1.419 1.134-3.758 3.491-6.458 3.491-2.716 0-5.08-2.39-6.458-3.491a1496.8 1496.8 0 01-4.433-3.554.749.749 0 01-.109-1.061l.954-1.158a.75.75 0 011.049-.108c1.789 1.438 3.66 2.94 4.41 3.536 1.097.876 3.107 2.837 4.588 2.837 1.475 0 3.453-1.93 4.588-2.837.75-.596 2.622-2.098 4.41-3.535a.75.75 0 011.049.108l.954 1.158z"/></symbol><symbol id="icon-phone-square" viewBox="0 0 28 32"><path d="M25 2H3a3 3 0 00-3 3v22a3 3 0 003 3h22a3 3 0 003-3V5a3 3 0 00-3-3zM5.875 26a.937.937 0 01-.913-.727l-.937-4.063a.937.937 0 01.538-1.07l.006-.002 4.375-1.875a.934.934 0 011.093.266l.001.002 1.937 2.368a14.49 14.49 0 006.924-6.924l-2.368-1.937a.935.935 0 01-.266-1.101l-.002.006 1.875-4.375a.939.939 0 011.079-.543l-.006-.001 4.063.937a.94.94 0 01.727.913c0 10.018-8.122 18.125-18.125 18.125z"/></symbol><symbol id="icon-telegram" viewBox="0 0 31 32"><path d="M15.5.5C6.937.5 0 7.438 0 16s6.938 15.5 15.5 15.5S31 24.562 31 16 24.062.5 15.5.5zm7.613 10.619l-2.544 11.988c-.188.85-.694 1.056-1.4.656l-3.875-2.856-1.869 1.8c-.206.206-.381.381-.781.381l.275-3.944 7.181-6.488c.313-.275-.069-.431-.481-.156l-8.875 5.588-3.825-1.194c-.831-.262-.85-.831.175-1.231l14.944-5.762c.694-.25 1.3.169 1.075 1.219z"/></symbol><symbol id="icon-viber" viewBox="0 0 32 32"><path d="M27.75 3.119C26.956 2.388 23.744.056 16.581.025c0 0-8.444-.506-12.556 3.269C1.737 5.582.931 8.938.844 13.094S.65 25.038 8.157 27.15h.006l-.006 3.225s-.05 1.306.813 1.569c1.037.325 1.65-.669 2.644-1.738a97.604 97.604 0 001.863-2.106c5.137.431 9.081-.556 9.531-.7 1.038-.337 6.906-1.087 7.856-8.875.988-8.037-.475-13.113-3.113-15.406zm.869 14.819c-.806 6.5-5.563 6.913-6.438 7.194-.375.119-3.844.981-8.2.7 0 0-3.25 3.919-4.262 4.938-.331.331-.694.3-.688-.356 0-.431.025-5.356.025-5.356-.006 0-.006 0 0 0-6.362-1.762-5.987-8.394-5.919-11.863S3.862 6.882 5.8 4.97c3.481-3.156 10.65-2.688 10.65-2.688 6.056.025 8.956 1.85 9.631 2.463 2.231 1.912 3.369 6.488 2.538 13.194zm-8.688-5.051c.025.537-.781.575-.806.037-.069-1.375-.712-2.044-2.038-2.119-.538-.031-.488-.838.044-.806 1.744.094 2.712 1.094 2.8 2.888zm1.269.707c.063-2.65-1.594-4.725-4.738-4.956-.531-.037-.475-.844.056-.806 3.625.262 5.556 2.756 5.488 5.781-.006.537-.819.512-.806-.019zm2.937.837c.006.537-.806.544-.806.006-.038-5.094-3.431-7.869-7.55-7.9-.531-.006-.531-.806 0-.806 4.606.031 8.313 3.213 8.356 8.7zm-.706 6.132v.012c-.675 1.188-1.938 2.5-3.238 2.081l-.012-.019c-1.319-.369-4.425-1.969-6.387-3.531a16.35 16.35 0 01-2.65-2.65 20.218 20.218 0 01-1.925-2.912c-1.331-2.406-1.625-3.481-1.625-3.481-.419-1.3.887-2.563 2.081-3.237h.012c.575-.3 1.125-.2 1.494.244 0 0 .775.925 1.106 1.381.313.425.731 1.106.95 1.488.381.681.144 1.375-.231 1.662l-.75.6c-.381.306-.331.875-.331.875s1.113 4.206 5.269 5.269c0 0 .569.05.875-.331l.6-.75c.288-.375.981-.613 1.663-.231.919.519 2.087 1.325 2.863 2.056.438.356.538.9.238 1.475z"/></symbol></defs></svg>