<svg aria-hidden="true" style="position: absolute; width: 0; height: 0; overflow: hidden;" version="1.1" xmlns="http://www.w3.org/2000/svg" xmlns:xlink="http://www.w3.org/1999/xlink">
<defs>
<symbol id="icon-gmail-1" viewBox="0 0 32 32">
<title>gmail-1</title>
<path  d="M32 6v20c0 1.133-0.867 2-2 2h-2v-18.151l-12 8.617-12-8.617v18.151h-2c-1.135 0-2-0.867-2-2v-20c0-0.567 0.216-1.067 0.575-1.424 0.359-0.363 0.86-0.576 1.425-0.576h0.667l13.333 9.667 13.333-9.667h0.667c0.567 0 1.067 0.216 1.425 0.576 0.36 0.357 0.575 0.857 0.575 1.424z"></path>
</symbol>
<symbol id="icon-mail" viewBox="0 0 32 32">
<title>mail</title>
<path d="M16 0c-8.837 0-16 7.163-16 16s7.163 16 16 16 16-7.163 16-16-7.163-16-16-16zM8 8h16c0.286 0 0.563 0.061 0.817 0.177l-8.817 10.286-8.817-10.287c0.254-0.116 0.531-0.177 0.817-0.177zM6 22v-12c0-0.042 0.002-0.084 0.004-0.125l5.864 6.842-5.8 5.8c-0.045-0.167-0.069-0.34-0.069-0.517zM24 24h-16c-0.177 0-0.35-0.024-0.517-0.069l5.691-5.691 2.826 3.297 2.826-3.297 5.691 5.691c-0.167 0.045-0.34 0.069-0.517 0.069zM26 22c0 0.177-0.024 0.35-0.069 0.517l-5.8-5.8 5.865-6.842c0.003 0.041 0.004 0.083 0.004 0.125v12z"></path>
</symbol>
<symbol id="icon-mail1" viewBox="0 0 32 32">
<title>mail1</title>
<path d="M30.912 10.282c-0.294-0.243-6.983-5.622-8.453-6.791-1.381-1.104-3.744-3.491-6.458-3.491-2.7 0-5.040 2.357-6.458 3.491-1.529 1.216-8.192 6.575-8.447 6.784-0.671 0.554-1.095 1.386-1.095 2.317v0 16.407c0 1.657 1.343 3 3 3h26c1.657 0 3-1.343 3-3v-16.406c0-0.928-0.421-1.758-1.083-2.308l-0.005-0.004zM29 28.625c0 0.207-0.168 0.375-0.375 0.375v0h-25.25c-0.207 0-0.375-0.168-0.375-0.375v0-15.853c0-0.113 0.051-0.22 0.139-0.292 0.992-0.801 6.8-5.472 8.273-6.643 1.135-0.907 3.113-2.837 4.588-2.837 1.481 0 3.491 1.961 4.588 2.837 1.473 1.171 7.281 5.843 8.273 6.645 0.085 0.069 0.139 0.174 0.139 0.291 0 0 0 0 0 0v-0 15.852zM27.001 16.893c0.266 0.322 0.217 0.8-0.109 1.061-1.811 1.455-3.705 2.975-4.433 3.554-1.419 1.134-3.758 3.491-6.458 3.491-2.716 0-5.080-2.39-6.458-3.491-0.705-0.56-2.609-2.088-4.433-3.554-0.326-0.262-0.375-0.739-0.109-1.061l0.954-1.158c0.261-0.317 0.729-0.365 1.049-0.108 1.789 1.438 3.66 2.94 4.41 3.536 1.097 0.876 3.107 2.837 4.588 2.837 1.475 0 3.453-1.93 4.588-2.837 0.75-0.596 2.622-2.098 4.41-3.535 0.32-0.257 0.788-0.209 1.049 0.108l0.954 1.158z"></path>
</symbol>
<symbol id="icon-phone-square" viewBox="0 0 28 32">
<title>phone-square</title>
<path d="M25 2h-22c-1.657 0-3 1.343-3 3v22c0 1.657 1.343 3 3 3h22c1.657 0 3-1.343 3-3v-22c0-1.657-1.343-3-3-3zM5.875 26c-0.44 0-0.816-0.305-0.913-0.727l-0.937-4.063c-0.015-0.063-0.024-0.136-0.024-0.211 0-0.384 0.231-0.715 0.562-0.859l0.006-0.002 4.375-1.875c0.109-0.048 0.236-0.076 0.369-0.076 0.292 0 0.552 0.133 0.724 0.342l0.001 0.002 1.937 2.368c3.059-1.435 5.519-3.929 6.924-6.924l-2.368-1.937c-0.211-0.173-0.344-0.434-0.344-0.726 0-0.133 0.028-0.26 0.078-0.375l-0.002 0.006 1.875-4.375c0.147-0.337 0.477-0.568 0.862-0.568 0.075 0 0.147 0.009 0.217 0.025l-0.006-0.001 4.063 0.937c0.419 0.099 0.727 0.47 0.727 0.913 0 0 0 0 0 0v0c0 10.018-8.122 18.125-18.125 18.125z"></path>
</symbol>
<symbol id="icon-telegram" viewBox="0 0 31 32">
<title>telegram</title>
<path d="M15.5 0.5c-8.563 0-15.5 6.938-15.5 15.5s6.938 15.5 15.5 15.5 15.5-6.938 15.5-15.5-6.938-15.5-15.5-15.5zM23.113 11.119l-2.544 11.988c-0.188 0.85-0.694 1.056-1.4 0.656l-3.875-2.856-1.869 1.8c-0.206 0.206-0.381 0.381-0.781 0.381l0.275-3.944 7.181-6.488c0.313-0.275-0.069-0.431-0.481-0.156l-8.875 5.588-3.825-1.194c-0.831-0.262-0.85-0.831 0.175-1.231l14.944-5.762c0.694-0.25 1.3 0.169 1.075 1.219z"></path>
</symbol>
<symbol id="icon-viber" viewBox="0 0 32 32">
<title>viber</title>
<path d="M27.75 3.119c-0.794-0.731-4.006-3.063-11.169-3.094 0 0-8.444-0.506-12.556 3.269-2.288 2.288-3.094 5.644-3.181 9.8s-0.194 11.944 7.313 14.056h0.006l-0.006 3.225s-0.050 1.306 0.813 1.569c1.037 0.325 1.65-0.669 2.644-1.738 0.544-0.587 1.294-1.45 1.863-2.106 5.137 0.431 9.081-0.556 9.531-0.7 1.038-0.337 6.906-1.087 7.856-8.875 0.988-8.037-0.475-13.113-3.113-15.406zM28.619 17.938c-0.806 6.5-5.563 6.913-6.438 7.194-0.375 0.119-3.844 0.981-8.2 0.7 0 0-3.25 3.919-4.262 4.938-0.331 0.331-0.694 0.3-0.688-0.356 0-0.431 0.025-5.356 0.025-5.356-0.006 0-0.006 0 0 0-6.362-1.762-5.987-8.394-5.919-11.863s0.725-6.313 2.663-8.225c3.481-3.156 10.65-2.688 10.65-2.688 6.056 0.025 8.956 1.85 9.631 2.463 2.231 1.912 3.369 6.488 2.538 13.194zM19.931 12.887c0.025 0.537-0.781 0.575-0.806 0.037-0.069-1.375-0.712-2.044-2.038-2.119-0.538-0.031-0.488-0.838 0.044-0.806 1.744 0.094 2.712 1.094 2.8 2.888zM21.2 13.594c0.063-2.65-1.594-4.725-4.738-4.956-0.531-0.037-0.475-0.844 0.056-0.806 3.625 0.262 5.556 2.756 5.488 5.781-0.006 0.537-0.819 0.512-0.806-0.019zM24.137 14.431c0.006 0.537-0.806 0.544-0.806 0.006-0.038-5.094-3.431-7.869-7.55-7.9-0.531-0.006-0.531-0.806 0-0.806 4.606 0.031 8.313 3.213 8.356 8.7zM23.431 20.563v0.012c-0.675 1.188-1.938 2.5-3.238 2.081l-0.012-0.019c-1.319-0.369-4.425-1.969-6.387-3.531-1.012-0.8-1.938-1.744-2.65-2.65-0.644-0.806-1.294-1.762-1.925-2.912-1.331-2.406-1.625-3.481-1.625-3.481-0.419-1.3 0.887-2.563 2.081-3.237h0.012c0.575-0.3 1.125-0.2 1.494 0.244 0 0 0.775 0.925 1.106 1.381 0.313 0.425 0.731 1.106 0.95 1.488 0.381 0.681 0.144 1.375-0.231 1.662l-0.75 0.6c-0.381 0.306-0.331 0.875-0.331 0.875s1.113 4.206 5.269 5.269c0 0 0.569 0.050 0.875-0.331l0.6-0.75c0.288-0.375 0.981-0.613 1.663-0.231 0.919 0.519 2.087 1.325 2.863 2.056 0.438 0.356 0.538 0.9 0.238 1.475z"></path>
</symbol>
</defs>
</svg>
